HIERARCHY
ROOT hip
{
	OFFSET 0.000000 0.000000 0.000000 
	CHANNELS 6 Xposition Yposition Zposition Xrotation Zrotation Yrotation
	JOINT abdomen
	{
		OFFSET 0.000000 3.402643 0.000000 
		CHANNELS 3 Xrotation Zrotation Yrotation
		JOINT chest
		{
			OFFSET 0.000000 8.438565 -0.680529 
			CHANNELS 3 Xrotation Zrotation Yrotation
			JOINT neck
			{
				OFFSET 0.000000 10.207942 -0.272212 
				CHANNELS 3 Xrotation Zrotation Yrotation
				JOINT head
				{
					OFFSET 0.000000 3.130431 0.000000 
					CHANNELS 3 Xrotation Zrotation Yrotation
					End Site
					{
						OFFSET 0.000000 3.130435 0.000000 
					}
				}
			}
			JOINT lCollar
			{
				OFFSET 3.470700 6.669187 -0.816635 
				CHANNELS 3 Yrotation Zrotation Xrotation
				JOINT lShldr
				{
					OFFSET 3.198488 0.000000 0.000000 
					CHANNELS 3 Zrotation Yrotation Xrotation
					JOINT lForeArm
					{
						OFFSET 10.139888 0.000000 0.000000 
						CHANNELS 3 Yrotation Zrotation Xrotation
						JOINT lHand
						{
							OFFSET 8.370511 0.000000 0.000000 
							CHANNELS 3 Zrotation Yrotation Xrotation
							End Site
							{
								OFFSET 4.083176 0.000000 0.000000 
							}
						}
					}
				}
			}
			JOINT rCollar
			{
				OFFSET -3.470700 6.669187 -0.816635 
				CHANNELS 3 Yrotation Zrotation Xrotation
				JOINT rShldr
				{
					OFFSET -3.198488 0.000000 0.000000 
					CHANNELS 3 Zrotation Yrotation Xrotation
					JOINT rForeArm
					{
						OFFSET -10.139888 0.000000 0.000000 
						CHANNELS 3 Yrotation Zrotation Xrotation
						JOINT rHand
						{
							OFFSET -8.370511 0.000000 0.000000 
							CHANNELS 3 Zrotation Yrotation Xrotation
							End Site
							{
								OFFSET -4.083176 0.000000 0.000000 
							}
						}
					}
				}
			}
		}
	}
	JOINT lThigh
	{
		OFFSET 5.308129 -1.633274 1.361059 
		CHANNELS 3 Xrotation Zrotation Yrotation
		JOINT lShin
		{
			OFFSET -2.041588 -20.007561 0.000000 
			CHANNELS 3 Xrotation Zrotation Yrotation
			JOINT lFoot
			{
				OFFSET 0.000000 -19.190928 -1.224953 
				CHANNELS 3 Xrotation Yrotation Zrotation
				End Site
				{
					OFFSET 0.000000 -2.449906 4.627600 
				}
			}
		}
	}
	JOINT rThigh
	{
		OFFSET -5.308129 -1.633274 1.361059 
		CHANNELS 3 Xrotation Zrotation Yrotation
		JOINT rShin
		{
			OFFSET 2.041588 -20.007561 0.000000 
			CHANNELS 3 Xrotation Zrotation Yrotation
			JOINT rFoot
			{
				OFFSET 0.000000 -19.190928 -1.224953 
				CHANNELS 3 Xrotation Yrotation Zrotation
				End Site
				{
					OFFSET 0.000000 -2.449906 4.627600 
				}
			}
		}
	}
}
MOTION
Frames: 8
Frame Time: 0.033333
-0.654388 51.809368 2.333577 3.496094 1.914063 -7.460611 21.320654 -3.396543 -4.267044 -21.406250 2.070432 5.351561 51.553619 8.070152 2.616707 -51.533207 -15.908202 -4.169924 2.000000 -2.000000 0.000000 -34.707031 -30.566408 -94.384766 -62.981777 -1.352850 -2.450754 53.542854 30.039326 18.609051 -2.000000 2.000000 0.000000 84.306641 54.238281 -71.915901 130.071289 38.285065 -2.705076 -64.620308 -19.385376 -2.813925 8.162951 -7.079179 -2.584755 8.314842 -6.246937 -1.260863 -4.993521 10.109705 -0.486980 -28.042322 -12.292723 -6.269075 57.379608 2.879114 4.487051 13.980305 -16.874949 -0.564617 
-1.377961 51.635399 4.611228 3.339844 0.341797 -6.132807 21.371153 -3.175054 -6.057250 -21.181641 4.677734 5.029297 51.553619 8.070152 2.616707 -51.464844 -15.195312 -3.176389 2.000000 -2.000000 0.000000 -32.949219 -30.341801 -93.461967 -63.354984 -1.181331 -2.529180 53.204884 28.096397 18.777603 -2.000000 2.000000 0.000000 83.359375 54.453129 -73.458855 129.923874 38.699234 -2.757446 -64.627029 -19.434645 -2.788113 11.361068 -5.143998 -3.683428 8.313753 -6.248400 -1.260960 -5.251710 10.247396 -0.596409 -27.907351 -8.270431 -10.441548 50.374546 3.612797 3.756737 11.434721 -17.059353 -3.635633 
-2.088301 52.165234 6.667702 3.164063 -1.064453 -4.834166 21.215858 -2.952349 -7.855387 -21.113281 7.294923 4.708272 51.553619 8.070152 2.616707 -51.025394 -14.355468 -2.187500 2.000000 -2.000000 0.000000 -32.275391 -30.625000 -92.778412 -63.528259 -1.009929 -2.441367 52.525883 27.115475 19.145391 -2.000000 2.000000 0.000000 82.695313 54.853516 -74.181465 129.616425 38.494251 -2.593075 -64.634338 -19.474161 -2.759056 13.473564 -2.763345 -4.733834 9.908497 -6.219496 -1.435736 -4.002025 9.889706 -1.399611 -20.510279 -3.229485 -14.814373 27.481503 4.817673 2.612430 15.931488 -15.071142 -7.378181 
-2.694771 52.948128 8.044338 2.978516 -2.646484 -3.330529 21.208092 -2.815057 -9.485860 -20.869141 9.726563 4.580078 51.553619 8.070152 2.616707 -50.771488 -13.320312 -1.542969 2.000000 -2.000000 0.000000 -32.802734 -32.041016 -92.753906 -63.886490 -1.140180 -2.326033 52.850304 26.984169 19.506224 -2.000000 2.000000 0.000000 82.167969 54.824219 -75.273438 129.258469 38.606354 -2.847024 -64.684448 -19.124720 -2.626320 13.459351 -0.683674 -4.647299 15.030565 -6.072146 -1.973141 0.239686 9.338469 -2.342356 -10.127872 1.710582 -16.700489 -0.185572 6.273168 -0.247674 23.930069 -10.513665 -10.037699 
-3.612039 52.252216 9.688419 2.636719 -5.283162 -0.987233 21.522251 -3.001185 -11.233856 -20.742188 13.017579 4.189453 51.553619 8.070152 2.616707 -49.843750 -10.566406 -2.150229 2.000000 -2.000000 0.000000 -35.644531 -35.029297 -92.739983 -63.706787 -1.201395 -2.537791 52.584274 27.421406 20.608582 -2.000000 2.000000 0.000000 81.484375 54.150387 -75.548721 128.585083 38.339916 -1.950454 -64.705803 -19.253025 -2.571658 11.517788 4.147719 -3.676871 24.574387 -5.800725 -2.787714 20.042025 4.904756 -4.200684 -6.576241 5.212998 -19.312654 -2.984036 5.785893 -0.436542 14.833322 -4.904179 -9.911067 
-4.238760 52.331295 11.958551 2.460938 -6.347656 -0.136719 21.707054 -3.489063 -11.435340 -20.527344 13.876954 4.375001 51.553619 8.070152 2.616707 -49.853512 -8.457031 -3.311984 2.000000 -2.000000 0.000000 -38.242188 -34.853516 -91.972656 -63.878540 -0.948600 -2.396043 52.671967 28.031897 20.928223 -2.000000 2.000000 0.000000 81.552734 53.144531 -75.048828 127.758690 38.435162 -1.389016 -64.581993 -19.217041 -2.897402 14.929293 5.848305 -1.236205 22.265846 -5.350152 -2.438451 25.906773 6.802569 2.404138 -5.963720 6.257938 -19.304926 2.988635 5.943856 0.025432 8.452676 -5.062981 -9.113605 
-4.967381 52.291756 14.335943 2.294922 -7.031250 0.203883 22.199295 -4.323085 -11.010900 -20.322266 14.218751 4.296875 51.553619 8.070152 2.616707 -50.029297 -6.318359 -5.156251 2.000000 -2.000000 0.000000 -40.644531 -33.964844 -91.640625 -64.057800 -1.210012 -2.517733 52.391327 28.703190 21.610735 -2.000000 2.000000 0.000000 82.119141 52.968754 -74.658203 127.707199 38.499348 -1.144573 -64.638695 -19.562428 -2.720233 19.594999 7.830948 2.063952 16.781858 -5.558048 -1.192437 34.097473 9.325744 9.773382 -4.227224 7.019768 -18.504974 5.635485 6.268884 0.020024 4.270589 -5.627405 -8.305534 
-5.754724 52.220585 16.788937 2.109375 -7.382767 0.203826 22.668005 -5.345069 -10.306034 -20.146484 14.218751 4.521484 51.553619 8.070152 2.616707 -50.585941 -4.355469 -6.982422 2.000000 -2.000000 0.000000 -43.378906 -33.037109 -90.478516 -64.233589 -1.200263 -2.518300 51.769642 29.622538 22.000566 -2.000000 2.000000 0.000000 83.281250 53.125000 -75.566406 127.776108 38.650574 -1.390130 -64.655746 -19.279682 -2.707202 25.601582 8.075822 4.934866 7.598932 -5.767072 -0.577489 43.907234 14.550931 16.152742 -1.521276 8.541292 -17.580740 6.514325 6.217881 0.284752 0.610175 -5.909259 -7.182581 
